# xmcd
#
# Track frame offsets:
#	150
#	18298
#	37628
#	55827
#	76580
#	93385
#	110636
#	131679
#	147928
#	160791
#	182853
#	203007
#	222851
#
# Disc length: 3259 seconds
#
# Revision: 0
# Processed by: cddbd v1.5.1PL2 Copyright (c) Steve Scherf et al.
# Submitted via: EasyCDDAExtractor 9.0.0.1
#
DISCID=a30cb90d
DTITLE=Peter Byrne - A Collection
DYEAR=2006
DGENRE=Country
TTITLE0=The Lighthouse
TTITLE1=Quiet Day
TTITLE2=Waiting For Tomorrow 
TTITLE3=Killing Time
TTITLE4=Love Song
TTITLE5=Come On Baby
TTITLE6=Sure Feels Good To Me
TTITLE7=Looking Out I'm In Today
TTITLE8=Take Time For A Woman
TTITLE9=Casino Company
TTITLE10=The Trouble
TTITLE11=Imaginary Friend
TTITLE12=Back To The Start
EXTD=
EXTT0=
EXTT1=
EXTT2=
EXTT3=
EXTT4=
EXTT5=
EXTT6=
EXTT7=
EXTT8=
EXTT9=
EXTT10=
EXTT11=
EXTT12=
PLAYORDER=
